Coordinates
version=1
nRows=19
nColumns=24
inDegrees=yes

Units are S.I. units (second, meters, Newtons, ...)
Angles are in degrees.

endheader
time	pelvis_tilt	pelvis_list	pelvis_rotation	pelvis_tx	pelvis_ty	pelvis_tz	hip_flexion_r	hip_adduction_r	hip_rotation_r	knee_angle_r	ankle_angle_r	subtalar_angle_r	mtp_angle_r	hip_flexion_l	hip_adduction_l	hip_rotation_l	knee_angle_l	ankle_angle_l	subtalar_angle_l	mtp_angle_l	lumbar_extension	lumbar_bending	lumbar_rotation
      0.58800000	      0.38678554	      6.58397888	     -1.52424386	     -0.83300220	      1.05487030	      0.34146073	     21.97294220	     -1.94166558	     -9.95169028	      0.51530590	      1.14614567	     -0.61761338	      0.07829667	    -15.06389585	     11.77097933	      1.58511270	     -3.87051829	      6.05362453	     -4.71442977	      0.06421648	      3.17427328	     -4.80931532	     -1.15383708
      0.59216667	      0.44482219	      6.59649593	     -1.62504163	     -0.82738905	      1.05453018	      0.34141592	     21.91182547	     -1.88277554	     -9.77810652	      0.06979212	      1.27388069	     -0.66689036	      0.10083622	    -15.23388382	     11.82133279	      1.58499382	     -4.28686363	      6.09187468	     -4.79826624	      0.06136754	      3.09600992	     -4.69400095	     -1.27162862
      0.59633333	      0.48935602	      6.59758760	     -1.60811569	     -0.82169109	      1.05428435	      0.34127300	     21.81805099	     -1.85479094	     -9.64803073	     -0.35015631	      1.27940643	     -0.69896361	      0.10701404	    -15.36372912	     11.82182495	      1.62453486	     -4.77974120	      6.05864075	     -4.80981536	      0.06151136	      3.16154820	     -4.65640741	     -1.29168480
      0.60050000	      0.55181600	      6.64101348	     -1.75015948	     -0.81614959	      1.05394543	      0.34133819	     21.75311263	     -1.81673931	     -9.25656287	     -0.85414301	      1.45665631	     -1.02119548	      0.13804132	    -15.49318341	     11.90646930	      1.58042716	     -5.25976255	      6.01647123	     -4.83378306	      0.06738715	      3.01576600	     -4.66938713	     -1.40121617
      0.60466667	      0.59870752	      6.62473477	     -1.70916443	     -0.81036122	      1.05375677	      0.34115550	     21.62606367	     -1.78997150	     -9.09189345	     -1.28377794	      1.41929917	     -1.07499764	      0.14406508	    -15.59991694	     11.87777789	      1.59809159	     -5.80926775	      5.96973923	     -4.83234837	      0.06986787	      3.10921085	     -4.61958296	     -1.41432951
      0.60883333	      0.64304920	      6.67066679	     -1.89534167	     -0.80479373	      1.05340987	      0.34138479	     21.55842183	     -1.73646881	     -8.49267034	     -1.76336391	      1.35486434	     -1.66314809	      0.18180883	    -15.65183326	     11.96250437	      1.34032986	     -6.38459846	      5.83337466	     -4.69100413	      0.09640910	      2.94419721	     -4.59709388	     -1.52877721
      0.61300000	      0.69606478	      6.63845229	     -1.84335769	     -0.79893398	      1.05329829	      0.34119416	     21.39449691	     -1.70532817	     -8.32586236	     -2.17223746	      1.29079970	     -1.71673277	      0.18759891	    -15.73286287	     11.90755134	      1.35099193	     -7.00299327	      5.78868686	     -4.67350475	      0.10200916	      3.07649788	     -4.55481615	     -1.52866101
      0.61716667	      0.76282686	      6.61243676	     -2.05343623	     -0.79313161	      1.05307062	      0.34184211	     21.19925188	     -1.53765809	     -7.38269004	     -2.47734123	      0.78256280	     -2.94462252	      0.26637929	    -15.76493077	     11.87486430	      0.76098380	     -7.66182023	      5.65049132	     -4.00513302	      0.21267624	      3.12024453	     -4.63303549	     -1.59342324
      0.62133333	      0.79327018	      6.59039929	     -2.01073917	     -0.78730623	      1.05297620	      0.34162175	     21.06110281	     -1.52619019	     -7.25738077	     -2.89130321	      0.72078880	     -2.97037882	      0.27313065	    -15.77155279	     11.82985486	      0.75699915	     -8.36851090	      5.60991119	     -3.99150084	      0.22226354	      3.16708504	     -4.51918593	     -1.60126890
      0.62550000	      0.82549533	      6.57392044	     -1.97875872	     -0.78149770	      1.05290453	      0.34144437	     20.91525541	     -1.51971146	     -7.11259494	     -3.28649063	      0.60418891	     -3.01244437	      0.28033470	    -15.74741554	     11.78700327	      0.66404658	     -9.12603553	      5.52157223	     -3.94129922	      0.23459099	      3.19969017	     -4.40735569	     -1.61554082
      0.62966667	      0.82905961	      6.49865491	     -2.15035179	     -0.77554550	      1.05273404	      0.34227172	     20.73133461	     -1.30035124	     -6.23711235	     -3.50426354	     -0.17333661	     -4.36118343	      0.41133567	    -15.62820809	     11.65045691	     -0.15838768	     -9.95912125	      5.50379760	     -2.71185686	      0.51842911	      3.18111938	     -4.33325148	     -1.61632934
      0.63383333	      0.88349714	      6.47024118	     -2.11452331	     -0.76972460	      1.05276736	      0.34208971	     20.54300065	     -1.29625506	     -6.13539923	     -3.86210254	     -0.29031177	     -4.34251408	      0.41971869	    -15.58076745	     11.58324127	     -0.26238803	    -10.80378408	      5.38227377	     -2.69815103	      0.53405488	      3.24659123	     -4.24764661	     -1.62051565
      0.63800000	      0.84478222	      6.38372892	     -2.12765112	     -0.76368111	      1.05270528	      0.34223322	     20.43448731	     -1.18016060	     -6.02398989	     -4.18050359	     -0.75302758	     -4.40390470	      0.44400117	    -15.39225559	     11.43187118	     -0.77558873	    -11.70274419	      4.99704292	     -2.41488382	      0.59383599	      3.14658139	     -4.13635073	     -1.65684253
      0.64216667	      0.91928618	      6.29390844	     -2.25565316	     -0.75774202	      1.05276752	      0.34287928	     20.15780280	     -1.00016104	     -5.34498708	     -4.36011486	     -1.54257312	     -5.51074353	      0.60089599	    -15.29172152	     11.25723161	     -1.43789055	    -12.65334581	      4.89246189	     -1.23064794	      1.02145923	      3.27756906	     -4.03739383	     -1.65200029
      0.64633333	      0.98930792	      6.24981416	     -2.21226731	     -0.75193875	      1.05292604	      0.34270555	     19.93731689	     -0.99784603	     -5.27066235	     -4.68249801	     -1.67268875	     -5.47335298	      0.61028237	    -15.17399199	     11.14824276	     -1.60584853	    -13.64779287	      4.72377722	     -1.20902055	      1.04362647	      3.33766687	     -3.92714922	     -1.65938725
      0.65050000	      0.98988439	      6.12531725	     -2.31135525	     -0.74578242	      1.05297853	      0.34298742	     19.78772225	     -0.82896652	     -5.19767277	     -4.98327738	     -2.39756612	     -5.60604195	      0.65914183	    -14.96107896	     10.94732466	     -2.26960365	    -14.63656641	      3.99436191	     -0.57500380	      1.19689667	      3.34022764	     -3.73117534	     -1.71390834
      0.65466667	      1.03131528	      5.97942463	     -2.29258526	     -0.73968273	      1.05319247	      0.34339548	     19.50132351	     -0.65804105	     -4.77726057	     -5.12703875	     -3.03273201	     -6.23222050	      0.77229266	    -14.75991137	     10.65075130	     -2.79824671	    -15.73451396	      3.61631142	      0.28095264	      1.57315053	      3.41876569	     -3.61072883	     -1.73095893
      0.65883333	      1.07334161	      5.88414684	     -2.33223459	     -0.73376194	      1.05334505	      0.34349317	     19.33300434	     -0.56449221	     -4.78177828	     -5.49196014	     -3.36304466	     -6.44265135	      0.82854630	    -14.51885828	     10.46034993	     -3.28126184	    -16.86746718	      3.22541984	      0.62883525	      1.76603559	      3.37435360	     -3.40474857	     -1.76690479
      0.66300000	      1.08165967	      5.72535689	     -2.23202755	     -0.72766673	      1.05359087	      0.34355032	     19.11489107	     -0.43823412	     -4.72950935	     -5.73902674	     -3.57495523	     -6.46771394	      0.85153349	    -14.22590619	     10.13821117	     -3.66551146	    -18.07791897	      2.87971154	      0.81519194	      1.84614138	      3.32259975	     -3.27702292	     -1.78372659
